<?xml version="1.0" encoding="utf-8"?>
<!-- Generator: Adobe Illustrator 16.0.2, SVG Export Plug-In . SVG Version: 6.00 Build 0)  -->
<!DOCTYPE svg PUBLIC "-//W3C//DTD SVG 1.1//EN" "http://www.w3.org/Graphics/SVG/1.1/DTD/svg11.dtd">
<svg version="1.1" id="Layer_1" xmlns="http://www.w3.org/2000/svg" xmlns:xlink="http://www.w3.org/1999/xlink" x="0px" y="0px"
	 width="156.334px" height="27.667px" viewBox="0 19.333 156.334 27.667" enable-background="new 0 19.333 156.334 27.667"
	 xml:space="preserve">
<path fill="#14161B" d="M10.692,39.504c-2.712,0-4.98-0.912-6.804-2.736c-1.8-1.824-2.7-4.08-2.7-6.768s0.9-4.943,2.7-6.768
	c1.824-1.824,4.092-2.736,6.804-2.736c1.752,0,3.348,0.42,4.788,1.26c1.44,0.84,2.532,1.968,3.276,3.385l-3.996,2.34
	c-0.36-0.744-0.912-1.332-1.656-1.765c-0.72-0.432-1.536-0.647-2.448-0.647c-1.392,0-2.544,0.468-3.456,1.404
	C6.288,27.384,5.832,28.561,5.832,30c0,1.416,0.456,2.592,1.368,3.527c0.912,0.912,2.064,1.369,3.456,1.369
	c0.936,0,1.764-0.205,2.484-0.612c0.744-0.433,1.296-1.021,1.656-1.765l4.032,2.305c-0.792,1.416-1.908,2.556-3.348,3.42
	C14.04,39.084,12.444,39.504,10.692,39.504z M36.339,36.768c-1.848,1.824-4.104,2.736-6.768,2.736s-4.92-0.912-6.768-2.736
	c-1.824-1.848-2.736-4.104-2.736-6.768s0.912-4.908,2.736-6.732c1.848-1.848,4.104-2.772,6.768-2.772s4.92,0.924,6.768,2.772
	c1.848,1.824,2.772,4.068,2.772,6.732S38.187,34.92,36.339,36.768z M26.079,33.564c0.936,0.936,2.1,1.403,3.492,1.403
	s2.556-0.468,3.492-1.403c0.936-0.937,1.404-2.125,1.404-3.564s-0.468-2.628-1.404-3.564c-0.936-0.936-2.1-1.403-3.492-1.403
	s-2.556,0.468-3.492,1.403c-0.912,0.937-1.368,2.125-1.368,3.564S25.167,32.628,26.079,33.564z M62.286,20.496
	c2.064,0,3.708,0.672,4.932,2.016c1.248,1.344,1.872,3.144,1.872,5.4V39h-4.644V28.236c0-1.08-0.264-1.92-0.792-2.521
	c-0.528-0.6-1.272-0.899-2.232-0.899c-1.056,0-1.884,0.348-2.484,1.043c-0.576,0.697-0.864,1.705-0.864,3.024V39H53.43V28.236
	c0-1.08-0.264-1.92-0.792-2.521c-0.528-0.6-1.272-0.899-2.232-0.899c-1.032,0-1.86,0.348-2.484,1.043
	c-0.6,0.697-0.9,1.705-0.9,3.024V39h-4.644V21h4.644v1.908c1.08-1.608,2.748-2.412,5.004-2.412c2.208,0,3.84,0.864,4.896,2.592
	C58.122,21.36,59.91,20.496,62.286,20.496z M83.51,20.496c2.424,0,4.488,0.924,6.192,2.772c1.728,1.824,2.592,4.068,2.592,6.732
	s-0.864,4.92-2.592,6.768c-1.704,1.824-3.768,2.736-6.192,2.736c-2.52,0-4.464-0.876-5.832-2.628V46.2h-4.644V21h4.644v2.124
	C79.046,21.372,80.99,20.496,83.51,20.496z M79.082,33.672c0.936,0.936,2.124,1.404,3.564,1.404c1.44,0,2.628-0.469,3.564-1.404
	c0.96-0.96,1.44-2.184,1.44-3.672s-0.48-2.7-1.44-3.636c-0.936-0.96-2.124-1.44-3.564-1.44c-1.44,0-2.628,0.48-3.564,1.44
	C78.146,27.3,77.678,28.512,77.678,30S78.146,32.712,79.082,33.672z M109.249,21h4.644v18h-4.644v-2.124
	c-1.392,1.752-3.348,2.628-5.868,2.628c-2.4,0-4.463-0.912-6.191-2.736c-1.704-1.848-2.556-4.104-2.556-6.768
	s0.852-4.908,2.556-6.732c1.728-1.848,3.792-2.772,6.191-2.772c2.52,0,4.476,0.876,5.868,2.628V21z M100.681,33.672
	c0.936,0.936,2.124,1.404,3.564,1.404s2.628-0.469,3.564-1.404c0.96-0.96,1.44-2.184,1.44-3.672s-0.48-2.7-1.44-3.636
	c-0.936-0.96-2.124-1.44-3.564-1.44s-2.628,0.48-3.564,1.44C99.745,27.3,99.277,28.512,99.277,30S99.745,32.712,100.681,33.672z
	 M128.111,20.496c1.969,0,3.589,0.66,4.861,1.98c1.295,1.32,1.943,3.144,1.943,5.472V39h-4.645V28.523
	c0-1.199-0.324-2.111-0.972-2.735c-0.647-0.647-1.512-0.972-2.592-0.972c-1.2,0-2.16,0.371-2.88,1.115
	c-0.721,0.744-1.08,1.86-1.08,3.349V39h-4.645V21h4.645v2.016C123.876,21.336,125.664,20.496,128.111,20.496z M150.23,21h4.969
	l-6.553,18c-0.936,2.592-2.184,4.464-3.744,5.616c-1.535,1.176-3.455,1.704-5.76,1.584v-4.32c1.248,0.024,2.232-0.239,2.953-0.792
	c0.743-0.552,1.332-1.439,1.764-2.664L136.479,21h5.076l4.68,12.096L150.23,21z"/>
</svg>
