<?xml version="1.0" encoding="utf-8"?>
<!-- Generator: Adobe Illustrator 16.0.2, SVG Export Plug-In . SVG Version: 6.00 Build 0)  -->
<!DOCTYPE svg PUBLIC "-//W3C//DTD SVG 1.1//EN" "http://www.w3.org/Graphics/SVG/1.1/DTD/svg11.dtd">
<svg version="1.1" id="Layer_1" xmlns="http://www.w3.org/2000/svg" xmlns:xlink="http://www.w3.org/1999/xlink" x="0px" y="0px"
	 width="1571.333px" height="436.479px" viewBox="0 0 1571.333 436.479" enable-background="new 0 0 1571.333 436.479"
	 xml:space="preserve">
<path fill="#FFFFFF" d="M100.583,138.843l21.25-77h34.25l-39.75,125h-30.75l-23-75.75l-23,75.75H8.833l-39.75-125h34.25l21.25,76.75
	l22.75-76.75h30.5L100.583,138.843z M290.083,137.593h-94.25c4.167,15.667,15.917,23.5,35.25,23.5c12.333,0,21.667-4.167,28-12.5
	l26,15c-12.333,17.833-30.5,26.75-54.5,26.75c-20.667,0-37.25-6.25-49.75-18.75s-18.75-28.25-18.75-47.25
	c0-18.667,6.167-34.333,18.5-47c12.167-12.667,28-19,47.5-19c18.5,0,33.583,6.333,45.25,19c12,12.667,18,28.333,18,47
	C291.333,127.843,290.917,132.26,290.083,137.593z M195.333,112.593h63.75c-1.833-8.167-5.583-14.417-11.25-18.75
	c-5.5-4.333-12.083-6.5-19.75-6.5c-8.667,0-15.833,2.25-21.5,6.75C200.917,98.427,197.167,104.593,195.333,112.593z M386.597,58.343
	c16.833,0,31.166,6.417,43,19.25c12,12.833,18,28.417,18,46.75c0,18.667-6,34.333-18,47c-11.667,12.667-26,19-43,19
	c-17.5,0-31-6.083-40.5-18.25v14.75h-32.25v-175h32.25v64.75C355.597,64.427,369.097,58.343,386.597,58.343z M355.847,149.843
	c6.5,6.5,14.75,9.75,24.75,9.75s18.25-3.25,24.75-9.75c6.666-6.667,10-15.167,10-25.5s-3.334-18.75-10-25.25
	c-6.5-6.667-14.75-10-24.75-10s-18.25,3.333-24.75,10c-6.5,6.5-9.75,14.917-9.75,25.25S349.347,143.176,355.847,149.843z
	 M138.333,262.594v-64.75h32.25v175h-32.25v-14.75c-9.5,12.166-23,18.25-40.5,18.25c-16.834,0-31.25-6.334-43.25-19
	c-11.834-12.834-17.75-28.5-17.75-47c0-18.334,5.916-33.918,17.75-46.75c12-12.834,26.416-19.25,43.25-19.25
	C115.333,244.344,128.833,250.426,138.333,262.594z M78.833,335.844c6.833,6.5,15.166,9.75,25,9.75c10,0,18.25-3.25,24.75-9.75
	c6.5-6.668,9.75-15.168,9.75-25.5c0-10.334-3.25-18.75-9.75-25.25c-6.5-6.668-14.75-10-24.75-10s-18.334,3.332-25,10
	c-6.5,6.5-9.75,14.916-9.75,25.25C69.083,320.676,72.333,329.176,78.833,335.844z M321.577,323.594h-94.249
	c4.167,15.666,15.917,23.5,35.25,23.5c12.333,0,21.667-4.168,28-12.5l25.999,15c-12.333,17.832-30.499,26.75-54.499,26.75
	c-20.667,0-37.25-6.25-49.75-18.75s-18.75-28.25-18.75-47.25c0-18.668,6.167-34.334,18.5-47c12.167-12.668,28-19,47.5-19
	c18.5,0,33.583,6.332,45.249,19c12,12.666,18,28.332,18,47C322.827,313.844,322.41,318.26,321.577,323.594z M226.828,298.594h63.75
	c-1.833-8.168-5.583-14.418-11.25-18.75c-5.5-4.334-12.083-6.5-19.75-6.5c-8.667,0-15.833,2.25-21.5,6.75
	C232.411,284.426,228.661,290.594,226.828,298.594z M392.208,335.344l30.5-87.5h35.5l-47.5,125h-36.75l-47.5-125h35.5
	L392.208,335.344z M590.376,323.594h-94.25c4.167,15.666,15.917,23.5,35.25,23.5c12.332,0,21.667-4.168,28-12.5l26,15
	c-12.333,17.832-30.5,26.75-54.5,26.75c-20.667,0-37.25-6.25-49.75-18.75s-18.75-28.25-18.75-47.25c0-18.668,6.167-34.334,18.5-47
	c12.167-12.668,28-19,47.5-19c18.5,0,33.582,6.332,45.25,19c12,12.666,18,28.332,18,47
	C591.626,313.844,591.208,318.26,590.376,323.594z M495.626,298.594h63.75c-1.833-8.168-5.583-14.418-11.25-18.75
	c-5.5-4.334-12.083-6.5-19.75-6.5c-8.668,0-15.833,2.25-21.5,6.75C501.209,284.426,497.459,290.594,495.626,298.594z
	 M646.39,372.844h-32.25v-182.5h32.25V372.844z M782.407,357.344c-12.666,12.666-28.333,19-47,19c-18.666,0-34.333-6.334-47-19
	c-12.666-12.668-19-28.334-19-47c0-18.5,6.334-34.084,19-46.75c12.834-12.834,28.5-19.25,47-19.25s34.167,6.416,47,19.25
	c12.834,12.832,19.25,28.416,19.25,46.75C801.657,328.844,795.241,344.51,782.407,357.344z M711.157,335.094
	c6.5,6.5,14.584,9.75,24.25,9.75c9.667,0,17.75-3.25,24.25-9.75s9.75-14.75,9.75-24.75s-3.25-18.25-9.75-24.75
	s-14.583-9.75-24.25-9.75c-9.666,0-17.75,3.25-24.25,9.75c-6.333,6.666-9.5,14.916-9.5,24.75
	C701.657,320.176,704.824,328.426,711.157,335.094z M897.095,244.344c16.833,0,31.166,6.416,43,19.25c12,12.832,18,28.416,18,46.75
	c0,18.666-6,34.332-18,47c-11.667,12.666-26,19-43,19c-17.5,0-31-6.084-40.5-18.25v64.75h-32.25v-175h32.25v14.75
	C866.095,250.426,879.595,244.344,897.095,244.344z M866.345,335.844c6.5,6.5,14.75,9.75,24.75,9.75s18.25-3.25,24.75-9.75
	c6.666-6.668,10-15.168,10-25.5c0-10.334-3.334-18.75-10-25.25c-6.5-6.668-14.75-10-24.75-10s-18.25,3.332-24.75,10
	c-6.5,6.5-9.75,14.916-9.75,25.25C856.595,320.676,859.845,329.176,866.345,335.844z M1119.093,244.344
	c14.33,0,25.75,4.666,34.25,14c8.66,9.332,13,21.832,13,37.5v77h-32.25v-74.75c0-7.5-1.84-13.334-5.5-17.5
	c-3.67-4.168-8.84-6.25-15.5-6.25c-7.34,0-13.09,2.416-17.25,7.25c-4,4.832-6,11.832-6,21v70.25h-32.25v-74.75
	c0-7.5-1.84-13.334-5.5-17.5c-3.67-4.168-8.84-6.25-15.5-6.25c-7.17,0-12.92,2.5-17.25,7.5c-4.17,4.832-6.25,11.75-6.25,20.75v70.25
	h-32.254v-125h32.254v13.25c7.5-11.168,19.08-16.75,34.75-16.75c15.5,0,26.83,6,34,18
	C1090.003,250.344,1102.423,244.344,1119.093,244.344z M1315.233,323.594h-94.25c4.16,15.666,15.91,23.5,35.25,23.5
	c12.33,0,21.66-4.168,28-12.5l26,15c-12.34,17.832-30.5,26.75-54.5,26.75c-20.67,0-37.25-6.25-49.75-18.75s-18.75-28.25-18.75-47.25
	c0-18.668,6.16-34.334,18.5-47c12.16-12.668,28-19,47.5-19c18.5,0,33.58,6.332,45.25,19c12,12.666,18,28.332,18,47
	C1316.483,313.844,1316.063,318.26,1315.233,323.594z M1220.483,298.594h63.75c-1.84-8.168-5.59-14.418-11.25-18.75
	c-5.5-4.334-12.09-6.5-19.75-6.5c-8.67,0-15.84,2.25-21.5,6.75C1226.063,284.426,1222.313,290.594,1220.483,298.594z
	 M1408.493,244.344c13.83,0,25.08,4.582,33.75,13.75c9,9.332,13.5,22,13.5,38v76.75h-32.25v-72.75c0-8.168-2.25-14.5-6.75-19
	c-4.33-4.5-10.33-6.75-18-6.75c-8.5,0-15.25,2.666-20.25,8c-4.83,5.166-7.25,12.832-7.25,23v67.5h-32.25v-125h32.25v14
	C1378.913,250.176,1391.323,244.344,1408.493,244.344z M1554.783,247.844v31h-28.25v52c0,4.332,1.08,7.5,3.25,9.5
	c2.16,2,5.33,3.166,9.5,3.5c4.16,0.166,9.33,0.082,15.5-0.25v29.25c-21.84,2.5-37.42,0.5-46.75-6c-9.17-6.668-13.75-18.668-13.75-36
	v-52h-21.75v-31h21.75v-25.25l32.25-9.75v35H1554.783z"/>
</svg>
