<?xml version="1.0" encoding="utf-8"?>
<!-- Generator: Adobe Illustrator 16.0.2, SVG Export Plug-In . SVG Version: 6.00 Build 0)  -->
<!DOCTYPE svg PUBLIC "-//W3C//DTD SVG 1.1//EN" "http://www.w3.org/Graphics/SVG/1.1/DTD/svg11.dtd">
<svg version="1.1" id="Layer_1" xmlns="http://www.w3.org/2000/svg" xmlns:xlink="http://www.w3.org/1999/xlink" x="0px" y="0px"
	 width="163.333px" height="34.5px" viewBox="44 6.333 163.333 34.5" enable-background="new 44 6.333 163.333 34.5"
	 xml:space="preserve">
<path fill="#14161B" d="M59.112,37.532c-2.66,0-4.902-0.57-6.726-1.71c-1.824-1.166-3.129-2.787-3.914-4.864l5.244-3.04
	c1.064,2.457,2.926,3.686,5.586,3.686c2.406,0,3.61-0.722,3.61-2.166c0-0.811-0.393-1.418-1.178-1.823
	c-0.811-0.481-2.254-1.001-4.332-1.558c-2.128-0.583-3.927-1.419-5.396-2.509c-1.621-1.317-2.432-3.179-2.432-5.586
	c0-2.457,0.874-4.42,2.622-5.89c1.773-1.47,3.876-2.204,6.308-2.204c2.179,0,4.104,0.519,5.776,1.558
	c1.672,1.014,2.99,2.496,3.952,4.446l-5.13,3.002c-0.963-2.052-2.496-3.078-4.598-3.078c-0.887,0-1.583,0.19-2.09,0.57
	c-0.507,0.38-0.76,0.861-0.76,1.444c0,0.633,0.304,1.203,0.912,1.71c0.659,0.507,1.951,1.039,3.876,1.596l2.47,0.798
	c0.633,0.203,1.368,0.544,2.204,1.026c0.912,0.456,1.596,0.95,2.052,1.482c1.216,1.317,1.824,2.964,1.824,4.939
	c0,2.509-0.912,4.51-2.736,6.005C64.433,36.811,62.051,37.532,59.112,37.532z M82.425,26.436v4.713h10.64V37h-16.72V10.4h16.53
	v5.852h-10.45v4.408h9.5v5.775H82.425z M123.306,33.542c-2.685,2.66-5.953,3.99-9.804,3.99c-3.85,0-7.118-1.33-9.804-3.99
	c-2.685-2.66-4.028-5.94-4.028-9.842s1.343-7.182,4.028-9.842c2.686-2.66,5.954-3.99,9.804-3.99c3.851,0,7.119,1.33,9.804,3.99
	c2.686,2.66,4.028,5.941,4.028,9.842S125.992,30.882,123.306,33.542z M105.75,23.7c0,2.331,0.735,4.23,2.204,5.7
	c1.47,1.469,3.319,2.203,5.548,2.203c2.204,0,4.041-0.734,5.51-2.203c1.495-1.495,2.242-3.395,2.242-5.7s-0.747-4.206-2.242-5.7
	c-1.469-1.469-3.306-2.204-5.51-2.204c-2.229,0-4.078,0.735-5.548,2.204C106.485,19.469,105.75,21.369,105.75,23.7z"/>
<path fill="#14161B" d="M148.86,19.896c-0.84,0.84-1.868,1.26-3.084,1.26c-1.216,0-2.248-0.42-3.096-1.26
	c-0.84-0.848-1.26-1.88-1.26-3.096c0-1.216,0.42-2.244,1.26-3.084c0.848-0.848,1.88-1.272,3.096-1.272
	c1.216,0,2.244,0.424,3.084,1.272c0.848,0.84,1.272,1.868,1.272,3.084C150.132,18.016,149.708,19.048,148.86,19.896z M143.652,18.96
	c0.584,0.568,1.292,0.852,2.124,0.852c0.84,0,1.544-0.284,2.112-0.852c0.576-0.576,0.864-1.296,0.864-2.16
	c0-0.864-0.288-1.58-0.864-2.148c-0.568-0.576-1.272-0.864-2.112-0.864c-0.84,0-1.548,0.288-2.124,0.864
	c-0.568,0.568-0.852,1.284-0.852,2.148C142.8,17.656,143.084,18.376,143.652,18.96z M155.391,12.6h3.096
	c0.792,0,1.453,0.264,1.98,0.792c0.536,0.528,0.805,1.184,0.805,1.968c0,0.776-0.269,1.432-0.805,1.968
	c-0.527,0.528-1.188,0.792-1.98,0.792h-1.716V21h-1.38V12.6z M156.771,16.824h1.716c0.408,0,0.744-0.136,1.008-0.408
	c0.264-0.28,0.396-0.632,0.396-1.056c0-0.424-0.132-0.772-0.396-1.044c-0.265-0.28-0.6-0.42-1.008-0.42h-1.716V16.824z
	 M165.633,12.6h6.12v1.32h-2.364V21h-1.38v-7.08h-2.376V12.6z M176.773,21v-8.4h1.381V21H176.773z M190.396,12.6h1.476V21h-1.38
	v-5.988l-2.557,4.224h-0.168L185.212,15v6h-1.38v-8.4h1.488l2.531,4.2L190.396,12.6z M197.547,21v-8.4h1.38V21H197.547z
	 M146.94,28.74l-3.768,5.939h3.864V36h-5.58v-1.141l3.768-5.939h-3.684V27.6h5.4V28.74z M159.198,36h-1.488l-0.588-1.691h-3.576
	L152.958,36h-1.5l3.048-8.4h1.656L159.198,36z M155.334,29.22l-1.332,3.792h2.664L155.334,29.22z M162.844,27.6h6.12v1.32H166.6V36
	h-1.379v-7.08h-2.377V27.6z M173.984,36v-8.4h1.381V36H173.984z M188.063,34.896c-0.84,0.84-1.867,1.26-3.084,1.26
	c-1.215,0-2.248-0.42-3.096-1.26c-0.84-0.849-1.26-1.881-1.26-3.097s0.42-2.243,1.26-3.084c0.848-0.848,1.881-1.272,3.096-1.272
	c1.217,0,2.244,0.425,3.084,1.272c0.849,0.841,1.272,1.868,1.272,3.084S188.911,34.048,188.063,34.896z M182.855,33.96
	c0.584,0.567,1.291,0.853,2.123,0.853c0.84,0,1.545-0.285,2.112-0.853c0.576-0.576,0.864-1.296,0.864-2.16s-0.288-1.58-0.864-2.147
	c-0.567-0.576-1.272-0.864-2.112-0.864s-1.547,0.288-2.123,0.864c-0.568,0.567-0.853,1.283-0.853,2.147
	C182.003,32.656,182.287,33.376,182.855,33.96z M199.634,33.3v-5.7h1.38V36h-1.08l-3.959-5.7V36h-1.381v-8.4h1.08L199.634,33.3z"/>
</svg>
