<?xml version="1.0" encoding="utf-8"?>
<!-- Generator: Adobe Illustrator 16.0.2, SVG Export Plug-In . SVG Version: 6.00 Build 0)  -->
<!DOCTYPE svg PUBLIC "-//W3C//DTD SVG 1.1//EN" "http://www.w3.org/Graphics/SVG/1.1/DTD/svg11.dtd">
<svg version="1.1" id="Layer_1" xmlns="http://www.w3.org/2000/svg" xmlns:xlink="http://www.w3.org/1999/xlink" x="0px" y="0px"
	 width="165.902px" height="37.5px" viewBox="0 0 165.902 37.5" enable-background="new 0 0 165.902 37.5" xml:space="preserve">
<path fill="#14161B" d="M50.358,17.39C51.453,20.4,52,23.41,52,26.695c0,3.283-0.547,6.295-1.642,9.305l-9.032-3.832
	c0.821-1.642,1.095-3.557,1.095-5.473s-0.273-3.832-1.095-5.474L50.358,17.39z"/>
<path fill="#14161B" d="M36.674,2.884c5.747,2.737,10.4,7.389,13.137,13.137l-9.032,3.832v-0.547l5.474-6.568l-7.39,3.832
	c-1.642-1.916-3.558-3.558-6.021-4.652L36.674,2.884z"/>
<path fill="#14161B" d="M10.674,21.221c-0.821,1.642-1.095,3.558-1.095,5.474s0.273,3.831,1.095,5.473L1.642,36
	C0.547,32.99,0,29.979,0,26.695C0,23.41,0.547,20.4,1.642,17.39L10.674,21.221z"/>
<path fill="#14161B" d="M19.158,11.916c-3.558,1.642-6.294,4.379-7.937,7.937l-9.032-3.832c2.737-5.748,7.39-10.4,13.137-13.137
	L19.158,11.916z"/>
<path fill="#14161B" d="M26,0.695c3.284,0,6.295,0.547,9.305,1.642l-3.832,9.032c-1.642-0.821-3.558-1.095-5.474-1.095
	s-3.832,0.273-5.474,1.095l-3.832-9.032C19.705,1.242,22.716,0.695,26,0.695z"/>
<path fill="#14161B" d="M42.695,15.474L36.4,23.137c-2.189,2.463-4.379,4.927-6.294,7.39c-4.379,6.021-12.316-1.642-4.927-5.747
	l8.758-4.653L42.695,15.474z M26,26.695c1.368,0,2.189,1.094,2.189,2.189c0,1.368-0.821,2.463-2.189,2.463s-2.189-1.095-2.189-2.463
	C23.811,27.789,24.632,26.695,26,26.695z"/>
<path fill="#14161B" d="M70.379,17.013c-0.234,0.035-0.433-0.018-0.598-0.156c-0.165-0.139-0.243-0.321-0.234-0.546
	c-0.009-0.789-0.039-1.993-0.091-3.614c-0.061-1.508-0.113-2.83-0.156-3.965c0-0.243,0.091-0.468,0.273-0.676
	c0.182-0.208,0.399-0.338,0.65-0.39c0.251-0.052,0.468-0.009,0.65,0.13s0.273,0.33,0.273,0.572c0.052,0.971,0.117,2.63,0.195,4.979
	c1.04-1.751,2.076-3.454,3.107-5.109c0.104-0.173,0.243-0.308,0.416-0.403c0.182-0.104,0.364-0.156,0.546-0.156
	c0.208,0,0.386,0.065,0.533,0.195c0.147,0.121,0.221,0.537,0.221,1.248l0.364,2.613l0.182,1.703c0.113-0.217,0.459-0.949,1.04-2.197
	s1.07-2.236,1.469-2.964c0.121-0.234,0.303-0.412,0.546-0.533c0.251-0.122,0.485-0.147,0.702-0.078
	c0.226,0.069,0.377,0.217,0.455,0.442C81,8.325,80.979,8.554,80.857,8.797c-0.398,0.72-0.832,1.582-1.3,2.587
	c-0.459,1.005-0.758,1.643-0.897,1.911l-0.793,1.547l-0.741,1.469c-0.095,0.182-0.229,0.333-0.403,0.455
	c-0.173,0.121-0.351,0.19-0.533,0.208c-0.243,0.061-0.455,0.039-0.637-0.065c-0.182-0.104-0.291-0.265-0.325-0.481
	c-0.217-1.248-0.403-2.63-0.559-4.146c-0.026-0.26-0.069-0.594-0.13-1.001l-3.055,5.147c-0.121,0.2-0.286,0.355-0.494,0.468
	C70.791,17,70.587,17.039,70.379,17.013z M86.971,17.013c-1.283,0-3.029-0.013-5.239-0.039c-0.173,0-0.321-0.048-0.442-0.143
	c-0.122-0.104-0.204-0.229-0.247-0.377c-0.069-0.156-0.083-0.325-0.039-0.507c0.069-0.304,0.325-1.525,0.767-3.666
	c0.32-1.56,0.62-2.787,0.897-3.679c0.035-0.113,0.082-0.217,0.143-0.312c0.104-0.173,0.238-0.312,0.403-0.416
	c0.173-0.113,0.359-0.173,0.559-0.182c0.632-0.008,1.486-0.008,2.561,0c1.074,0,1.928-0.004,2.561-0.013
	c0.251,0,0.446,0.086,0.585,0.26c0.138,0.173,0.182,0.386,0.13,0.637c-0.052,0.243-0.182,0.455-0.39,0.637
	c-0.199,0.173-0.425,0.26-0.676,0.26c-0.485,0-1.209,0-2.171,0c-0.962-0.009-1.686-0.009-2.171,0
	c-0.139,0.529-0.29,1.152-0.455,1.872c0.416-0.008,1.699-0.013,3.848-0.013c0.251,0,0.446,0.087,0.585,0.26
	c0.147,0.173,0.195,0.386,0.143,0.637c-0.052,0.243-0.187,0.455-0.403,0.637c-0.217,0.173-0.451,0.26-0.702,0.26
	c-2.158,0-3.437,0.004-3.835,0.013c-0.191,0.971-0.333,1.655-0.429,2.054c1.759,0.018,3.229,0.026,4.407,0.026
	c0.251,0,0.442,0.087,0.572,0.26c0.139,0.173,0.182,0.386,0.13,0.637c-0.052,0.251-0.187,0.463-0.403,0.637
	C87.452,16.926,87.222,17.013,86.971,17.013z M92.766,17.052c-0.173,0-0.477-0.008-0.91-0.026l-1.066-0.052
	c-0.026,0.009-0.061,0.013-0.104,0.013c-0.147,0-0.281-0.035-0.403-0.104c-0.234-0.13-0.351-0.342-0.351-0.637
	c0-0.087,0.004-0.152,0.013-0.195c0.009-0.026,0.03-0.086,0.065-0.182l0.481-2.171c0.234-1.058,0.416-1.95,0.546-2.678
	c0.139-0.737,0.256-1.465,0.351-2.184c0.035-0.243,0.139-0.455,0.312-0.637c0.182-0.191,0.39-0.308,0.624-0.351
	c0.13-0.078,0.286-0.126,0.468-0.143l1.586-0.052c1.222,0,2.132,0.204,2.73,0.611c0.598,0.398,0.897,0.966,0.897,1.703
	c0,0.451-0.122,0.867-0.364,1.248c-0.234,0.373-0.507,0.615-0.819,0.728c0.416,0.173,0.71,0.399,0.884,0.676
	c0.182,0.277,0.273,0.615,0.273,1.014c0,0.538-0.117,1.001-0.351,1.391c-0.26,0.425-0.672,0.815-1.235,1.17
	c-0.849,0.511-1.885,0.793-3.107,0.845C93.174,17.048,93,17.052,92.766,17.052z M93.585,15.258c0.512-0.026,0.915-0.065,1.209-0.117
	c0.294-0.052,0.559-0.147,0.793-0.286c0.225-0.139,0.373-0.269,0.442-0.39c0.078-0.13,0.113-0.312,0.104-0.546
	c-0.018-0.416-0.364-0.663-1.04-0.741c-0.312-0.034-0.732-0.047-1.261-0.039l-1.456-0.013l-0.429,2.093
	c0.078,0.009,0.147,0.013,0.208,0.013s0.117,0.004,0.169,0.013C92.966,15.262,93.386,15.267,93.585,15.258z M94.196,11.397
	c0.563,0,1.044-0.104,1.443-0.312c0.347-0.19,0.52-0.425,0.52-0.702c0-0.251-0.165-0.455-0.494-0.611
	c-0.32-0.165-0.78-0.247-1.378-0.247c-0.477,0-0.875,0.009-1.196,0.026L93,10.097l-0.208,1.209
	C93.304,11.367,93.771,11.397,94.196,11.397z M106.543,17.104c-1.023,0-1.79-0.217-2.301-0.65c-0.512-0.434-0.767-1.001-0.767-1.703
	c0-0.511,0.108-0.893,0.325-1.144c0.225-0.251,0.489-0.377,0.793-0.377c0.199,0,0.372,0.061,0.52,0.182
	c0.147,0.113,0.221,0.277,0.221,0.494c0,0.017-0.013,0.182-0.039,0.494l-0.026,0.26c0,0.199,0.121,0.368,0.364,0.507
	c0.251,0.139,0.615,0.208,1.092,0.208c0.303,0,0.593-0.052,0.871-0.156c0.286-0.104,0.515-0.242,0.689-0.416
	c0.173-0.173,0.26-0.355,0.26-0.546c0-0.156-0.065-0.303-0.195-0.442c-0.122-0.139-0.338-0.273-0.65-0.403l-0.507-0.195
	c-0.148-0.052-0.308-0.108-0.481-0.169c-0.174-0.069-0.356-0.143-0.546-0.221c-1.3-0.529-1.95-1.305-1.95-2.327
	c0-0.511,0.169-0.992,0.507-1.443c0.338-0.451,0.784-0.811,1.339-1.079c0.554-0.269,1.144-0.403,1.768-0.403
	c0.918,0,1.668,0.221,2.249,0.663c0.58,0.442,0.871,1.062,0.871,1.859c0,0.424-0.091,0.754-0.273,0.988
	c-0.182,0.226-0.425,0.338-0.728,0.338c-0.269,0-0.486-0.069-0.65-0.208c-0.156-0.139-0.234-0.325-0.234-0.559
	c0-0.226-0.005-0.381-0.013-0.468c-0.009-0.095-0.048-0.186-0.117-0.273c-0.122-0.156-0.317-0.291-0.585-0.403
	c-0.26-0.122-0.568-0.187-0.923-0.195c-0.425,0-0.759,0.087-1.001,0.26c-0.243,0.173-0.364,0.377-0.364,0.611
	c0,0.225,0.091,0.403,0.273,0.533c0.19,0.13,0.546,0.303,1.066,0.52c0.138,0.052,0.242,0.095,0.312,0.13
	c0.502,0.19,0.927,0.373,1.274,0.546c0.494,0.243,0.853,0.52,1.079,0.832c0.234,0.312,0.351,0.711,0.351,1.196
	c0,0.589-0.195,1.127-0.585,1.612c-0.382,0.477-0.876,0.854-1.482,1.131C107.752,16.965,107.149,17.104,106.543,17.104z
	 M113.807,16.181c-0.052,0.251-0.187,0.468-0.403,0.65c-0.217,0.173-0.451,0.26-0.702,0.26c-0.252,0-0.447-0.086-0.585-0.26
	c-0.139-0.182-0.182-0.399-0.13-0.65c0.052-0.251,0.307-1.512,0.767-3.783c0.468-2.271,0.745-3.532,0.832-3.783
	c0.06-0.251,0.199-0.459,0.416-0.624c0.216-0.173,0.45-0.26,0.702-0.26c0.043,0,0.086,0.004,0.13,0.013
	c0.017,0,0.039-0.004,0.065-0.013c1.092-0.173,1.932-0.243,2.522-0.208c1.17,0.078,1.976,0.49,2.418,1.235
	c0.346,0.572,0.455,1.183,0.325,1.833c-0.13,0.65-0.447,1.196-0.949,1.638c-0.425,0.373-0.915,0.663-1.469,0.871
	c-0.555,0.208-1.097,0.325-1.625,0.351c-0.182,0.009-0.373,0.009-0.572,0c-0.191-0.009-0.425-0.026-0.702-0.052
	c-0.278-0.026-0.434-0.043-0.468-0.052C114.119,14.656,113.928,15.6,113.807,16.181z M116.42,11.631
	c0.32-0.009,0.637-0.069,0.949-0.182c0.312-0.122,0.554-0.265,0.728-0.429c0.086-0.078,0.147-0.147,0.182-0.208
	c0.043-0.069,0.065-0.195,0.065-0.377s-0.048-0.36-0.143-0.533c-0.208-0.338-0.633-0.524-1.274-0.559
	c-0.434-0.026-1.006,0.013-1.716,0.117c-0.13,0.581-0.282,1.27-0.455,2.067h0.013l0.598,0.065c0.216,0.018,0.407,0.03,0.572,0.039
	C116.103,11.64,116.264,11.64,116.42,11.631z M126.732,17.013c-1.283,0-3.029-0.013-5.239-0.039c-0.174,0-0.321-0.048-0.442-0.143
	c-0.122-0.104-0.204-0.229-0.247-0.377c-0.07-0.156-0.083-0.325-0.039-0.507c0.069-0.304,0.325-1.525,0.767-3.666
	c0.32-1.56,0.619-2.787,0.897-3.679c0.034-0.113,0.083-0.217,0.143-0.312c0.104-0.173,0.238-0.312,0.402-0.416
	c0.174-0.113,0.359-0.173,0.56-0.182c0.632-0.008,1.485-0.008,2.562,0c1.073,0,1.928-0.004,2.561-0.013
	c0.251,0,0.445,0.086,0.585,0.26c0.138,0.173,0.182,0.386,0.13,0.637c-0.053,0.243-0.182,0.455-0.391,0.637
	c-0.199,0.173-0.424,0.26-0.676,0.26c-0.486,0-1.209,0-2.171,0c-0.962-0.009-1.687-0.009-2.171,0
	c-0.139,0.529-0.291,1.152-0.455,1.872c0.416-0.008,1.698-0.013,3.848-0.013c0.252,0,0.447,0.087,0.586,0.26
	c0.146,0.173,0.195,0.386,0.143,0.637c-0.052,0.243-0.188,0.455-0.402,0.637c-0.218,0.173-0.451,0.26-0.703,0.26
	c-2.158,0-3.437,0.004-3.834,0.013c-0.191,0.971-0.334,1.655-0.43,2.054c1.76,0.018,3.229,0.026,4.407,0.026
	c0.251,0,0.442,0.087,0.571,0.26c0.139,0.173,0.183,0.386,0.131,0.637c-0.053,0.251-0.188,0.463-0.403,0.637
	C127.213,16.926,126.982,17.013,126.732,17.013z M135.712,17.013c-1.282,0-3.028-0.013-5.239-0.039c-0.173,0-0.32-0.048-0.441-0.143
	c-0.121-0.104-0.204-0.229-0.247-0.377c-0.069-0.156-0.082-0.325-0.039-0.507c0.069-0.304,0.325-1.525,0.767-3.666
	c0.321-1.56,0.62-2.787,0.897-3.679c0.034-0.113,0.082-0.217,0.144-0.312c0.104-0.173,0.237-0.312,0.402-0.416
	c0.173-0.113,0.359-0.173,0.559-0.182c0.633-0.008,1.486-0.008,2.562,0c1.075,0,1.928-0.004,2.562-0.013
	c0.25,0,0.445,0.086,0.584,0.26s0.182,0.386,0.131,0.637c-0.053,0.243-0.183,0.455-0.391,0.637c-0.199,0.173-0.425,0.26-0.676,0.26
	c-0.485,0-1.209,0-2.172,0c-0.961-0.009-1.686-0.009-2.17,0c-0.139,0.529-0.291,1.152-0.455,1.872
	c0.416-0.008,1.699-0.013,3.848-0.013c0.251,0,0.446,0.087,0.585,0.26c0.147,0.173,0.195,0.386,0.144,0.637
	c-0.053,0.243-0.187,0.455-0.403,0.637c-0.218,0.173-0.451,0.26-0.702,0.26c-2.158,0-3.436,0.004-3.835,0.013
	c-0.19,0.971-0.334,1.655-0.429,2.054c1.759,0.018,3.228,0.026,4.406,0.026c0.252,0,0.442,0.087,0.572,0.26
	c0.139,0.173,0.182,0.386,0.131,0.637c-0.053,0.251-0.187,0.463-0.404,0.637C136.193,16.926,135.963,17.013,135.712,17.013z
	 M139.4,16.987c-0.233-0.008-0.42-0.1-0.559-0.273c-0.138-0.173-0.182-0.386-0.13-0.637l0.78-3.744
	c0.26-1.309,0.533-2.518,0.818-3.627c0.062-0.234,0.201-0.438,0.416-0.611c0.227-0.173,0.465-0.255,0.715-0.247
	c0.14-0.035,0.396-0.065,0.768-0.091c0.373-0.035,0.779-0.052,1.223-0.052c1.161,0,2.088,0.29,2.781,0.871
	c0.702,0.572,1.053,1.408,1.053,2.509c0,0.841-0.207,1.66-0.623,2.457s-0.945,1.495-1.586,2.093
	c-0.529,0.485-1.123,0.836-1.781,1.053c-0.658,0.208-1.326,0.312-2.002,0.312C140.259,17,139.635,16.996,139.4,16.987z
	 M140.701,15.284c0.512,0,0.85-0.004,1.014-0.013c0.659-0.035,1.196-0.152,1.612-0.351s0.789-0.507,1.118-0.923
	c0.338-0.434,0.59-0.88,0.754-1.339c0.164-0.459,0.246-0.893,0.246-1.3c0-0.667-0.198-1.157-0.598-1.469
	c-0.39-0.321-1.035-0.481-1.937-0.481c-0.294,0-0.624,0.013-0.988,0.039l-0.416,1.897l-0.468,2.301
	C140.909,14.296,140.797,14.842,140.701,15.284z M72.732,32.986c-0.78,0-1.482-0.155-2.106-0.467
	c-0.615-0.321-1.101-0.771-1.456-1.353c-0.355-0.589-0.533-1.265-0.533-2.028c0-0.996,0.243-1.92,0.728-2.769
	c0.494-0.858,1.157-1.538,1.989-2.041c0.841-0.503,1.75-0.754,2.73-0.754c0.225,0,0.39,0.009,0.494,0.026
	c0.104,0.017,0.264,0.061,0.481,0.129l0.325,0.104c0.165,0.052,0.334,0.108,0.507,0.169s0.321,0.13,0.442,0.208
	c0.494,0.338,0.88,0.798,1.157,1.378c0.277,0.572,0.416,1.218,0.416,1.938c0,0.936-0.238,1.824-0.715,2.664
	c-0.468,0.842-1.101,1.518-1.898,2.028C74.504,32.731,73.651,32.986,72.732,32.986z M73.031,31.232c0.581,0,1.101-0.156,1.56-0.469
	c0.468-0.32,0.832-0.736,1.092-1.248c0.269-0.52,0.403-1.065,0.403-1.638c0-0.407-0.095-0.832-0.286-1.274
	c-0.182-0.441-0.412-0.754-0.689-0.936c-0.104-0.069-0.294-0.135-0.572-0.195c-0.061-0.018-0.126-0.034-0.195-0.052
	c-0.069-0.026-0.143-0.048-0.221-0.065c-0.226-0.017-0.416-0.025-0.572-0.025c-0.546,0-1.057,0.164-1.534,0.494
	c-0.477,0.32-0.854,0.75-1.131,1.287c-0.277,0.537-0.416,1.104-0.416,1.703c0,0.788,0.221,1.391,0.663,1.807
	C71.583,31.028,72.216,31.232,73.031,31.232z M80.779,32.182c-0.052,0.25-0.187,0.467-0.403,0.649
	c-0.216,0.173-0.451,0.26-0.702,0.26c-0.251,0-0.446-0.087-0.585-0.26c-0.139-0.183-0.182-0.399-0.13-0.649
	c0.052-0.252,0.308-1.513,0.767-3.783c0.468-2.271,0.746-3.532,0.832-3.783c0.061-0.252,0.199-0.459,0.416-0.624
	c0.217-0.173,0.451-0.261,0.702-0.261c0.043,0,0.086,0.005,0.13,0.014c0.018,0,0.039-0.004,0.065-0.014
	c1.092-0.173,1.933-0.242,2.522-0.207c1.17,0.078,1.976,0.489,2.418,1.234c0.347,0.572,0.455,1.184,0.325,1.833
	c-0.13,0.65-0.446,1.196-0.949,1.638c-0.424,0.373-0.914,0.664-1.469,0.871c-0.555,0.209-1.096,0.325-1.625,0.352
	c-0.182,0.009-0.373,0.009-0.572,0c-0.19-0.009-0.424-0.026-0.702-0.053c-0.277-0.025-0.434-0.043-0.468-0.051
	C81.091,30.656,80.9,31.6,80.779,32.182z M83.392,27.631c0.321-0.009,0.637-0.069,0.949-0.182c0.312-0.121,0.555-0.265,0.728-0.43
	c0.086-0.078,0.147-0.146,0.182-0.207c0.043-0.07,0.065-0.195,0.065-0.377c0-0.183-0.048-0.36-0.143-0.533
	c-0.208-0.338-0.633-0.524-1.274-0.56c-0.434-0.026-1.005,0.013-1.716,0.117c-0.13,0.581-0.282,1.27-0.455,2.067h0.013l0.598,0.064
	c0.216,0.018,0.407,0.03,0.572,0.039S83.236,27.64,83.392,27.631z M91.26,32.104c-0.061,0.251-0.199,0.463-0.416,0.637
	C90.636,32.913,90.407,33,90.155,33c-0.251-0.009-0.446-0.1-0.585-0.273c-0.139-0.182-0.178-0.398-0.117-0.649
	c0.061-0.269,0.316-1.495,0.767-3.679c0.225-1.118,0.446-2.094,0.663-2.926c-0.693,0.009-1.278,0.014-1.755,0.014
	c-0.251,0-0.451-0.082-0.598-0.247c-0.139-0.165-0.187-0.373-0.143-0.624c0.052-0.252,0.182-0.459,0.39-0.624
	c0.216-0.173,0.451-0.261,0.702-0.261c0.555,0,1.474-0.004,2.756-0.013c1.282-0.009,2.201-0.013,2.756-0.013
	c0.251,0,0.446,0.082,0.585,0.247c0.147,0.155,0.195,0.359,0.143,0.61c-0.043,0.243-0.173,0.455-0.39,0.638
	c-0.208,0.173-0.433,0.26-0.676,0.26c-0.546,0-1.196,0.005-1.95,0.013c-0.208,0.798-0.429,1.769-0.663,2.912
	C91.589,30.595,91.33,31.834,91.26,32.104z M96.013,33.039c-0.251,0-0.451-0.082-0.598-0.247c-0.147-0.173-0.199-0.386-0.156-0.637
	c0.052-0.226,0.169-0.425,0.351-0.599c0.182-0.182,0.381-0.29,0.598-0.324c0.33-1.508,0.732-3.42,1.209-5.733
	c-0.199-0.044-0.351-0.147-0.455-0.312c-0.104-0.165-0.13-0.36-0.078-0.586c0.052-0.251,0.186-0.463,0.403-0.637
	s0.451-0.26,0.702-0.26l1.469,0.013c0.251,0,0.442,0.091,0.572,0.273c0.139,0.182,0.182,0.398,0.13,0.649
	c-0.043,0.217-0.156,0.408-0.338,0.572c-0.173,0.165-0.373,0.269-0.598,0.313c-0.459,2.279-0.854,4.168-1.183,5.668
	c0.208,0.034,0.364,0.134,0.468,0.299c0.112,0.164,0.151,0.355,0.117,0.572c-0.052,0.251-0.182,0.468-0.39,0.649
	c-0.208,0.183-0.438,0.277-0.689,0.286L96.013,33.039z M109.874,32.129c-0.06,0.252-0.203,0.464-0.429,0.637
	c-0.216,0.174-0.45,0.256-0.702,0.248c-0.242-0.01-0.433-0.104-0.572-0.287c-0.138-0.182-0.173-0.398-0.104-0.649
	c0.13-0.563,0.473-2.228,1.027-4.992c-0.814,0.806-1.629,1.669-2.444,2.587c-0.19,0.208-0.416,0.338-0.676,0.391
	c-0.251,0.043-0.463-0.005-0.637-0.144c-0.026-0.017-0.043-0.034-0.052-0.052c-0.086-0.061-0.156-0.135-0.208-0.221l-1.456-2.522
	c0,0.017-0.177,0.849-0.533,2.496c-0.346,1.638-0.524,2.461-0.533,2.47c-0.052,0.252-0.186,0.469-0.403,0.65
	c-0.208,0.173-0.437,0.26-0.689,0.26c-0.251,0-0.45-0.087-0.598-0.26c-0.138-0.182-0.182-0.398-0.13-0.65
	c0.078-0.363,0.208-0.975,0.39-1.833c0.191-0.858,0.334-1.521,0.429-1.989c0.104-0.468,0.221-1.049,0.351-1.742
	c0.113-0.615,0.221-1.252,0.325-1.91c0.035-0.252,0.152-0.473,0.351-0.663c0.208-0.19,0.442-0.295,0.702-0.312
	c0.13-0.01,0.247,0.008,0.351,0.051c0.234,0.035,0.403,0.152,0.507,0.352l2.119,3.627c1.214-1.3,2.414-2.47,3.601-3.51
	c0.252-0.313,0.551-0.464,0.897-0.455c0.252,0.009,0.442,0.104,0.572,0.286c0.139,0.182,0.178,0.398,0.117,0.649
	c-0.199,0.824-0.468,2.084-0.806,3.783C110.312,30.114,110.056,31.35,109.874,32.129z M112.666,33.039
	c-0.251,0-0.45-0.082-0.598-0.247c-0.147-0.173-0.199-0.386-0.156-0.637c0.052-0.226,0.169-0.425,0.351-0.599
	c0.182-0.182,0.382-0.29,0.598-0.324c0.33-1.508,0.733-3.42,1.209-5.733c-0.199-0.044-0.351-0.147-0.455-0.312
	c-0.104-0.165-0.13-0.36-0.078-0.586c0.052-0.251,0.187-0.463,0.403-0.637c0.217-0.174,0.451-0.26,0.702-0.26l1.469,0.013
	c0.252,0,0.442,0.091,0.572,0.273c0.139,0.182,0.182,0.398,0.13,0.649c-0.043,0.217-0.156,0.408-0.338,0.572
	c-0.173,0.165-0.372,0.269-0.598,0.313c-0.459,2.279-0.853,4.168-1.183,5.668c0.208,0.034,0.364,0.134,0.468,0.299
	c0.113,0.164,0.152,0.355,0.117,0.572c-0.052,0.251-0.182,0.468-0.39,0.649c-0.208,0.183-0.437,0.277-0.689,0.286L112.666,33.039z
	 M120.093,33c-1.179,0-2.145-0.018-2.899-0.052c-0.234-0.009-0.412-0.104-0.533-0.286c-0.122-0.182-0.152-0.395-0.091-0.637
	c0.06-0.243,0.203-0.451,0.429-0.625c0.303-0.277,0.819-0.797,1.547-1.56c2.634-2.409,4.138-3.856,4.511-4.342
	c-1.89,0.034-3.263,0.021-4.121-0.039c-0.243-0.017-0.425-0.117-0.546-0.299c-0.113-0.183-0.135-0.399-0.065-0.65
	c0.069-0.251,0.208-0.454,0.416-0.61c0.216-0.165,0.442-0.238,0.676-0.221c0.563,0.034,1.148,0.056,1.755,0.064
	c0.615,0.009,1.317,0.004,2.105-0.014c0.798-0.017,1.392-0.025,1.781-0.025c0.234,0,0.416,0.086,0.547,0.26
	c0.138,0.174,0.182,0.381,0.129,0.624c-0.051,0.226-0.16,0.421-0.324,0.585c-0.018,0.026-0.035,0.053-0.053,0.078
	c-0.398,0.598-0.814,1.118-1.248,1.561c-0.424,0.433-1.894,1.793-4.406,4.082l-0.325,0.324c0.286,0,0.632,0.009,1.04,0.026
	c1.664-0.034,2.665-0.052,3.003-0.052c0.233,0,0.416,0.086,0.546,0.26c0.139,0.174,0.182,0.381,0.131,0.624
	c-0.053,0.233-0.183,0.438-0.391,0.61c-0.208,0.174-0.43,0.261-0.663,0.261C122.723,32.948,121.739,32.965,120.093,33z
	 M124.898,32.467c-0.018-0.086-0.026-0.151-0.026-0.195c0-0.164,0.052-0.328,0.155-0.494l4.512-7.37
	c0.295-0.478,0.65-0.716,1.066-0.716c0.242,0,0.438,0.065,0.584,0.195c0.148,0.121,0.244,0.295,0.287,0.521l0.363,2.21l0.43,2.795
	l0.377,2.34c0.035,0.226,0.004,0.434-0.092,0.624c-0.086,0.19-0.212,0.343-0.377,0.455c-0.156,0.112-0.316,0.169-0.48,0.169
	c-0.434,0-0.689-0.187-0.768-0.559l-0.312-1.977l-2.886,0.065l-1.131,1.937c-0.113,0.174-0.261,0.313-0.442,0.416
	c-0.173,0.096-0.351,0.143-0.533,0.143c-0.173,0-0.325-0.047-0.455-0.143C125.033,32.787,124.941,32.648,124.898,32.467z
	 M130.332,28.736l-0.26-1.885l-1.235,1.91L130.332,28.736z M136.6,32.104c-0.062,0.251-0.199,0.463-0.416,0.637
	c-0.209,0.173-0.438,0.26-0.689,0.26c-0.251-0.009-0.446-0.1-0.585-0.273c-0.14-0.182-0.179-0.398-0.117-0.649
	c0.062-0.269,0.315-1.495,0.767-3.679c0.226-1.118,0.446-2.094,0.664-2.926c-0.693,0.009-1.279,0.014-1.756,0.014
	c-0.251,0-0.451-0.082-0.598-0.247c-0.139-0.165-0.186-0.373-0.143-0.624c0.051-0.252,0.182-0.459,0.39-0.624
	c0.217-0.173,0.45-0.261,0.702-0.261c0.555,0,1.473-0.004,2.756-0.013s2.201-0.013,2.756-0.013c0.251,0,0.445,0.082,0.585,0.247
	c0.147,0.155,0.194,0.359,0.144,0.61c-0.043,0.243-0.174,0.455-0.391,0.638c-0.208,0.173-0.434,0.26-0.676,0.26
	c-0.547,0-1.196,0.005-1.95,0.013c-0.208,0.798-0.429,1.769-0.663,2.912C136.928,30.595,136.668,31.834,136.6,32.104z
	 M141.352,33.039c-0.25,0-0.451-0.082-0.598-0.247c-0.146-0.173-0.199-0.386-0.156-0.637c0.053-0.226,0.17-0.425,0.352-0.599
	c0.182-0.182,0.381-0.29,0.598-0.324c0.329-1.508,0.732-3.42,1.209-5.733c-0.199-0.044-0.352-0.147-0.455-0.312
	c-0.104-0.165-0.13-0.36-0.078-0.586c0.053-0.251,0.187-0.463,0.403-0.637s0.451-0.26,0.702-0.26l1.469,0.013
	c0.251,0,0.441,0.091,0.572,0.273c0.139,0.182,0.182,0.398,0.13,0.649c-0.043,0.217-0.156,0.408-0.338,0.572
	c-0.173,0.165-0.373,0.269-0.599,0.313c-0.459,2.279-0.854,4.168-1.183,5.668c0.208,0.034,0.364,0.134,0.468,0.299
	c0.113,0.164,0.152,0.355,0.117,0.572c-0.052,0.251-0.182,0.468-0.39,0.649c-0.208,0.183-0.438,0.277-0.688,0.286L141.352,33.039z
	 M150.26,32.986c-0.779,0-1.482-0.155-2.105-0.467c-0.615-0.321-1.1-0.771-1.457-1.353c-0.354-0.589-0.532-1.265-0.532-2.028
	c0-0.996,0.243-1.92,0.728-2.769c0.494-0.858,1.157-1.538,1.989-2.041c0.841-0.503,1.751-0.754,2.729-0.754
	c0.227,0,0.391,0.009,0.494,0.026c0.104,0.017,0.266,0.061,0.481,0.129l0.325,0.104c0.165,0.052,0.334,0.108,0.507,0.169
	c0.174,0.061,0.321,0.13,0.442,0.208c0.494,0.338,0.88,0.798,1.156,1.378c0.278,0.572,0.416,1.218,0.416,1.938
	c0,0.936-0.238,1.824-0.715,2.664c-0.468,0.842-1.1,1.518-1.898,2.028C152.033,32.731,151.18,32.986,150.26,32.986z M150.559,31.232
	c0.582,0,1.102-0.156,1.561-0.469c0.468-0.32,0.832-0.736,1.092-1.248c0.27-0.52,0.402-1.065,0.402-1.638
	c0-0.407-0.094-0.832-0.285-1.274c-0.182-0.441-0.411-0.754-0.689-0.936c-0.104-0.069-0.293-0.135-0.572-0.195
	c-0.06-0.018-0.125-0.034-0.194-0.052c-0.069-0.026-0.144-0.048-0.222-0.065c-0.225-0.017-0.416-0.025-0.571-0.025
	c-0.546,0-1.058,0.164-1.534,0.494c-0.477,0.32-0.854,0.75-1.131,1.287s-0.416,1.104-0.416,1.703c0,0.788,0.221,1.391,0.663,1.807
	C149.111,31.028,149.745,31.232,150.559,31.232z M163.184,32.948c-0.348,0.061-0.607-0.044-0.781-0.313
	c-0.434-0.685-0.948-1.698-1.547-3.042c-0.668-1.36-1.152-2.283-1.455-2.769c-0.062,0.347-0.2,1.118-0.416,2.313
	c-0.217,1.188-0.412,2.176-0.586,2.965c-0.051,0.251-0.187,0.467-0.402,0.649c-0.217,0.173-0.451,0.261-0.702,0.261
	c-0.252,0-0.446-0.088-0.585-0.261c-0.139-0.183-0.182-0.398-0.13-0.649c0.164-0.764,0.403-1.994,0.715-3.692
	c0.312-1.708,0.58-2.999,0.806-3.874c0.061-0.252,0.199-0.464,0.416-0.637c0.226-0.174,0.459-0.256,0.702-0.248
	c0.121,0.01,0.234,0.035,0.339,0.078c0.155,0.053,0.276,0.148,0.363,0.287c0.112,0.182,0.29,0.472,0.533,0.871
	c0.251,0.389,0.438,0.684,0.559,0.883c0.372,0.504,0.893,1.431,1.561,2.783l0.441,0.896c0.45-2.011,0.801-3.645,1.053-4.901
	c0.053-0.251,0.183-0.464,0.391-0.637c0.216-0.183,0.45-0.272,0.702-0.272c0.251-0.01,0.446,0.073,0.585,0.246
	c0.138,0.174,0.186,0.386,0.143,0.637c-0.242,1.18-0.789,3.688-1.638,7.527c-0.062,0.243-0.19,0.451-0.39,0.624
	C163.659,32.84,163.434,32.931,163.184,32.948z"/>
</svg>
